<svg id="ico_twitter" xmlns="http://www.w3.org/2000/svg" width="23.802" height="19.835" viewBox="0 0 23.802 19.835">
  <path id="twitter" d="M23.8,5.32a6.4,6.4,0,0,1-.889,1.273,6.561,6.561,0,0,1-1.605,1.353q.027.212.04.4a14.443,14.443,0,0,1-1.022,5.533,14.569,14.569,0,0,1-5.8,7.2A15.244,15.244,0,0,1,5.453,22.74,10.42,10.42,0,0,1,0,20.631a10.161,10.161,0,0,0,7.271-2.1,5.009,5.009,0,0,1-4.617-3.423,3.1,3.1,0,0,0,1.035.053,9.627,9.627,0,0,0,1.168-.159,5.474,5.474,0,0,1-3.317-2.574A5.549,5.549,0,0,1,.982,9.99a4.662,4.662,0,0,0,2.2.663A5.69,5.69,0,0,1,1.022,7.137a6.511,6.511,0,0,1,.6-3.171A16.677,16.677,0,0,0,7.284,8.212a11.736,11.736,0,0,0,4.444.929,5.94,5.94,0,0,1,.6-3.768A5.133,5.133,0,0,1,15.39,3.144,4.523,4.523,0,0,1,19.928,4.55a8.077,8.077,0,0,0,3.158-1.168A4.791,4.791,0,0,1,20.91,6.2,13.8,13.8,0,0,0,23.8,5.32Z" transform="translate(0 -2.999)" fill="#fff"/>
</svg>
