<svg id="ico_line" xmlns="http://www.w3.org/2000/svg" width="21.896" height="20.863" viewBox="0 0 21.896 20.863">
  <path id="パス_33" data-name="パス 33" d="M704.517,389.641c0-4.9-4.911-8.884-10.948-8.884s-10.948,3.985-10.948,8.884c0,4.392,3.895,8.07,9.156,8.765.357.077.842.235.965.54a2.25,2.25,0,0,1,.035.99s-.129.773-.156.937c-.048.277-.22,1.082.948.59a35.346,35.346,0,0,0,8.6-6.356h0A7.9,7.9,0,0,0,704.517,389.641Zm-14.81,2.62a.209.209,0,0,1-.209.209h-3.076a.209.209,0,0,1-.209-.209v0h0v-4.774a.209.209,0,0,1,.209-.209h.776a.21.21,0,0,1,.209.209v3.792h2.09a.21.21,0,0,1,.209.209Zm1.852,0a.209.209,0,0,1-.209.209h-.776a.209.209,0,0,1-.209-.209v-4.778a.209.209,0,0,1,.209-.209h.776a.209.209,0,0,1,.209.209Zm5.286,0a.209.209,0,0,1-.209.209h-.772a.213.213,0,0,1-.055-.007h0l-.014,0-.007,0-.01,0-.01,0-.006,0-.013-.008,0,0a.211.211,0,0,1-.054-.053l-2.189-2.956v2.837a.209.209,0,0,1-.209.209h-.776a.209.209,0,0,1-.209-.209v-4.778a.209.209,0,0,1,.209-.209h.81l.013,0,.007,0,.013,0,.007,0,.012.005.007,0,.012.006.006,0,.011.008.006,0,.011.01,0,0,.013.013v0a.224.224,0,0,1,.017.022l2.186,2.952v-2.838a.209.209,0,0,1,.209-.209h.776a.209.209,0,0,1,.209.209Zm4.24-4a.209.209,0,0,1-.209.209h-2.09v.806h2.09a.21.21,0,0,1,.209.209v.776a.209.209,0,0,1-.209.209h-2.09v.806h2.09a.21.21,0,0,1,.209.209v.777a.209.209,0,0,1-.209.209H697.8a.209.209,0,0,1-.209-.209v0h0v-4.769h0v0a.209.209,0,0,1,.209-.209h3.076a.21.21,0,0,1,.209.209Z" transform="translate(-682.621 -380.757)" fill="#fff"/>
</svg>
