<svg id="logo" xmlns="http://www.w3.org/2000/svg" xmlns:xlink="http://www.w3.org/1999/xlink" width="733.773" height="571.941" viewBox="0 0 733.773 571.941">
  <defs>
    <clipPath id="clip-path">
      <rect id="長方形_3" data-name="長方形 3" width="733.773" height="571.941" fill="none"/>
    </clipPath>
  </defs>
  <g id="グループ_1" data-name="グループ 1" clip-path="url(#clip-path)">
    <path id="パス_1" data-name="パス 1" d="M137.041,228.306c31.555,0,47.555-12,47.555-35.67,0-28.907-26.08-49.738-55.137-70.278a.657.657,0,0,1-.276-.483.668.668,0,0,1,.191-.522l.167-.169a.66.66,0,0,1,.806-.1c18.525,11.042,31.8,19.5,46.34,35.4,10.211-5.705,16.78-14.535,16.78-22.608,0-18.693-21.565-28.471-42.866-28.471-22.18,0-46.05,10.376-46.05,33.16,0,26.859,28.15,51.675,52.987,73.569l2.2,1.943a.664.664,0,0,1,.156.787l-.165.333a.655.655,0,0,1-.419.345.642.642,0,0,1-.537-.088c-18.628-12.349-36.431-29.186-47.691-45.088-13.326.189-24.111,11.535-24.111,25.453,0,19.738,19.652,32.49,50.069,32.49" transform="translate(82.375 99.831)" fill="#fff"/>
    <path id="パス_2" data-name="パス 2" d="M221.624,170.428c0-1.947.037-3.826.1-5.655-4.673,9.192-11.6,14.853-17.022,14.853-2.664,0-8.861-1.435-8.861-14.724a.659.659,0,0,1,.2-.469l.335-.333a.662.662,0,0,1,1.125.469c0,7.345,2.819,11.73,7.541,11.73,7.551,0,12.063-12.6,12.063-24.787,0-14.006-5.645-28.138-18.258-28.138-6.644,0-13.155,4.484-16.995,11.706a.66.66,0,0,1-.876.28l-.337-.167a.656.656,0,0,1-.337-.783,22.86,22.86,0,0,1,4.632-8.715,23.255,23.255,0,0,0-7.183-.979c-22.895,0-38.849,26.738-38.849,50.737,0,24.448,11.441,35.835,36,35.835,9.919,0,18.465-3.213,23.447-8.817a.664.664,0,0,1,.456-.222,29.475,29.475,0,0,0,24.23-15.277,89.844,89.844,0,0,1-1.416-16.543M175.44,183.7a.659.659,0,0,1-.89-.148,27.109,27.109,0,0,1-5.493-17.143,46.042,46.042,0,0,1,4.922-19.874.659.659,0,0,1,.485-.362.65.65,0,0,1,.576.183l.333.333a.662.662,0,0,1,.16.676,54.837,54.837,0,0,0-2.812,17.374,47.792,47.792,0,0,0,3.466,17.83.66.66,0,0,1-.247.8Z" transform="translate(131.559 116.851)" fill="#fff"/>
    <path id="パス_3" data-name="パス 3" d="M267.8,178.129a87.119,87.119,0,0,1,1.416-15.6c-2.5,5.582-5.39,11.309-9.1,16.011a.66.66,0,0,1-1.133-.65c5.281-13.449,7.656-29.688,7.656-36.924,0-11.839-5.152-17.592-15.748-17.592-26.38,0-35.144,36.637-37.848,67.373a.661.661,0,0,1-.658.6h-.333a.659.659,0,0,1-.66-.689c1.25-27.718,6.694-47.853,16.183-59.861a26.694,26.694,0,0,0-19.041-7.424c-17.8,0-26.46,15.392-26.46,47.056,0,26.349,8.328,40.859,23.447,40.859,11.806,0,15.951-8.639,17.224-12.575a49.142,49.142,0,0,1-2.146-13.72,91.687,91.687,0,0,1,12.142-45.7.655.655,0,0,1,.781-.3l.5.167a.662.662,0,0,1,.387.907c-5.135,10.877-10.316,28.777-10.316,44.251,0,13.036,5.105,26.964,19.43,26.964,11.9,0,20-10.222,25.159-21.668a74.754,74.754,0,0,1-.878-11.49" transform="translate(172.44 116.85)" fill="#fff"/>
    <path id="パス_4" data-name="パス 4" d="M226.772,178.127c0,16.506,5.076,33.16,16.418,33.16,16.336,0,27.924-36.242,36.193-67.813a.66.66,0,0,1,.639-.493h.333a.66.66,0,0,1,.646.791c-3.25,15.9-7.037,32.478-12.709,46.04.06,10.923,7.434,38.259,7.51,38.536a.66.66,0,0,1-.637.831h-.337a.653.653,0,0,1-.6-.38,120.478,120.478,0,0,1-7.619-21.208c-8.542.292-23.434,7.74-23.434,19.758,0,6.955,5.606,15.244,32.319,15.244,27.194,0,32.657-8.78,32.657-22.945a84.125,84.125,0,0,0-1.4-12.822,226.692,226.692,0,0,1-3.117-38.912c0-14.518,2.958-26.913,9.039-37.874a28.228,28.228,0,0,0-17.923-6.669,24.337,24.337,0,0,0-12.808,3.374c5.407,3.606,10.6,9.849,12.658,12.468a.662.662,0,0,1-.051.872l-.333.337a.657.657,0,0,1-.929.008c-11.632-11.319-22.46-17.059-32.188-17.059-21.489,0-34.33,27.84-34.33,54.755m34.5-2.352h-.335a.657.657,0,0,1-.645-.8c2.845-12.954,8.488-35.048,14.286-37.467a.661.661,0,0,1,.886.8c-3.9,12.756-8.484,27.194-13.607,37.111a.66.66,0,0,1-.586.356" transform="translate(214.785 116.85)" fill="#fff"/>
    <path id="パス_5" data-name="パス 5" d="M304.612,209.472a20.638,20.638,0,0,0,10.628-2.839,97.463,97.463,0,0,1-2.58-22.955c0-18.977,4.352-38.466,13.69-61.311-2.307-7.794-10.923-13.868-19.73-13.868-23.531,0-29.809,36.1-29.809,57.433,0,16.261,3.612,43.54,27.8,43.54" transform="translate(262.178 102.764)" fill="#fff"/>
    <path id="パス_6" data-name="パス 6" d="M280.68,183.031c0,11.35,13.079,12.232,17.086,12.232,6.957,0,15.081-2.81,15.081-10.725,0-9.375-8.2-21.271-17.423-21.271-9.818,0-14.744,12.67-14.744,19.763" transform="translate(265.843 154.637)" fill="#fff"/>
    <path id="パス_7" data-name="パス 7" d="M.678,256.894a19.948,19.948,0,0,0,10.24,2.857,25.808,25.808,0,0,0,10.234-2.356,32.135,32.135,0,0,1-7.362-9.913.662.662,0,0,1,.129-.752l.166-.165a.662.662,0,0,1,.467-.193l.058,0a.661.661,0,0,1,.483.28A33.427,33.427,0,0,0,42.627,260.74c13.667,0,30.286-8.62,32.342-32.874A19.031,19.031,0,0,0,64.595,224.9a17.349,17.349,0,0,0-10.244,3.073,32.635,32.635,0,0,1,9.14,8.784.66.66,0,0,1-.082.833l-.166.166a.662.662,0,0,1-.911.021A49.849,49.849,0,0,0,29.747,224.9c-6.792,0-28.882,2.313-29.069,32" transform="translate(0.642 213.011)" fill="#fff"/>
    <path id="パス_8" data-name="パス 8" d="M160.336,283.639c-6.975,14.255-18.792,16.391-25.241,16.391-13.778,0-28.029-11.013-28.029-29.447a.659.659,0,0,1,.658-.66h.475a.661.661,0,0,1,.66.66c0,11.71,9.851,24.351,25.763,24.351,15.692,0,26.236-13.577,26.236-33.787,0-18.782-9.43-31.9-22.933-31.9-10.906,0-21.43,8.708-27.47,22.725a.658.658,0,0,1-.9.327l-.469-.236a.663.663,0,0,1-.343-.757c3.953-15.077,16.8-26.446,29.891-26.446,5.7,0,14,2.212,21.3,12.676,15.086-2.779,26.409-15.48,26.409-29.713,0-14.165-12.037-29.3-45.82-29.3-35.08,0-70.592,14.524-70.592,42.28,0,22.038,23.237,38.032,55.256,38.032a.661.661,0,0,1,.66.66v.711a.668.668,0,0,1-.2.471.555.555,0,0,1-.473.189c-17.409-.257-29.5-2.154-40.382-6.34C60.75,260.5,43.977,280.08,43.977,302.2c0,32.517,37.95,50.065,73.658,50.065,35.9,0,57.289-17.187,68.909-31.6.386-.477.736-.962,1.108-1.443a124.056,124.056,0,0,1-2.259-24.807,182.583,182.583,0,0,1,1.287-22.719,114.086,114.086,0,0,1-26.345,11.946" transform="translate(41.652 169.084)" fill="#fff"/>
    <path id="パス_9" data-name="パス 9" d="M227.324,281.691a.66.66,0,0,1-1.133-.65C233.646,262.056,237,239.124,237,228.906c0-16.864-7.349-25.06-22.464-25.06-37.381,0-49.784,51.765-53.611,95.192a.659.659,0,0,1-.656.6H159.8a.659.659,0,0,1-.658-.689c1.766-39.153,9.467-67.54,22.9-84.395-6.883-6.91-16.516-10.709-27.2-10.709-25.274,0-37.558,21.779-37.558,66.582,0,37.307,11.831,57.853,33.312,57.853,16.9,0,22.776-12.425,24.557-17.988a69.15,69.15,0,0,1-3.038-19.339,128.955,128.955,0,0,1,17.076-64.271.657.657,0,0,1,.781-.294l.707.238a.659.659,0,0,1,.4.366.672.672,0,0,1-.012.541c-7.247,15.353-14.563,40.627-14.563,62.476,0,28.218,14.286,38.271,27.655,38.271,19.119,0,31.314-18.56,38.363-37.171-.366-5.621-.572-11.6-.572-18.085a194.463,194.463,0,0,1,.975-20.254c-4.181,9.72-8.941,20.494-15.6,28.919" transform="translate(111.083 193.07)" fill="#fff"/>
    <path id="パス_10" data-name="パス 10" d="M213.132,219.91c6.034,0,12.707-3.857,18.309-10.585,5.181-6.223,8.4-13.665,8.4-19.425,0-11.529-12.991-15.62-24.115-15.62-14.59,0-21.987,5.81-21.987,17.269,0,10.18,6.48,28.36,19.392,28.36" transform="translate(183.499 165.068)" fill="#fff"/>
    <path id="パス_11" data-name="パス 11" d="M210.355,372.4c38.549,0,46.293-12.475,46.293-32.607,0-4.656-.95-11.568-2.152-20.316-1.879-13.681-4.219-30.7-4.219-48.575,0-23.993,4.188-42.792,12.8-57.448a40.655,40.655,0,0,0-26.294-9.609c-25.395,0-38.271,23.276-38.271,69.18,0,33.742,5.409,54.164,11.671,77.812l.341,1.291a.66.66,0,0,1-.637.829h-.473a.66.66,0,0,1-.6-.38,169.46,169.46,0,0,1-10.772-30.05c-13.69.286-33.508,11.907-33.508,27.885,0,18.175,24.918,21.989,45.82,21.989" transform="translate(155.838 193.07)" fill="#fff"/>
    <path id="パス_12" data-name="パス 12" d="M304.432,283.122c-7.765,0-12.218-7.463-12.218-20.48a.665.665,0,0,1,.195-.469l.475-.467a.659.659,0,0,1,1.123.467c0,10.52,4.075,16.8,10.9,16.8,10.811,0,17.271-17.9,17.271-35.2,0-19.873-8.04-39.924-26-39.924-9.463,0-18.733,6.377-24.189,16.64a.657.657,0,0,1-.878.28l-.473-.236a.662.662,0,0,1-.337-.783,31.634,31.634,0,0,1,6.753-12.491,32.8,32.8,0,0,0-10.606-1.521c-13.523,0-27.289,7.434-37.765,20.4-11.126,13.764-17.254,32.011-17.254,51.373,0,34.638,16.208,50.772,51.009,50.772,14.058,0,26.175-4.562,33.247-12.518a.661.661,0,0,1,.456-.22,41.534,41.534,0,0,0,32.507-18.63,131.251,131.251,0,0,1-2.461-26.954q0-2.077.045-4.093c-6.406,10.758-14.96,17.256-21.8,17.256m-41.758,5.9a.656.656,0,0,1-.524-.259c-5.172-6.743-7.685-14.59-7.685-23.995a64.641,64.641,0,0,1,6.91-27.891.655.655,0,0,1,.483-.36.645.645,0,0,1,.576.183l.469.469a.658.658,0,0,1,.16.676,77.635,77.635,0,0,0-3.976,24.569,67.658,67.658,0,0,0,4.9,25.231.661.661,0,0,1-.247.8l-.707.467a.655.655,0,0,1-.364.111" transform="translate(200.251 193.07)" fill="#fff"/>
    <path id="パス_13" data-name="パス 13" d="M290.389,350.411c0,18.175,24.917,21.989,45.818,21.989,38.546,0,46.291-12.475,46.291-32.6,0-4.658-.952-11.568-2.154-20.318-1.881-13.679-4.219-30.7-4.219-48.573,0-23.989,4.188-42.79,12.8-57.452-6.328-5.849-16.582-9.605-26.3-9.605-36.84,0-41.1,47.156-41.1,82.625a.654.654,0,0,1-.136.4l-2.36,3.067a.66.66,0,0,1-1.184-.4c0-37.329,5.314-63.71,15.8-78.433-6.1-4.621-14.59-7.259-23.395-7.259-34.116,0-39.211,41.422-39.211,66.113,0,26.606,5.74,58.323,33.078,58.323,13.373,0,28.006-16.792,36.415-41.784a.657.657,0,0,1,.623-.45h.477a.66.66,0,0,1,.645.8c-1.4,6.579-4.3,20.225-13.864,32.132,1.61,9.323,4.434,20.081,7.956,33.148a.673.673,0,0,1-.115.574.659.659,0,0,1-.524.259h-.469a.657.657,0,0,1-.6-.38,159.353,159.353,0,0,1-10.37-28.683,31.509,31.509,0,0,1-22.3,9.479,17.648,17.648,0,0,1-3.1-.185c-5.645,5.08-8.505,10.873-8.505,17.222" transform="translate(256.714 193.07)" fill="#fff"/>
    <path id="パス_14" data-name="パス 14" d="M335.386,256.894a19.948,19.948,0,0,0,10.24,2.857,25.808,25.808,0,0,0,10.234-2.356,32.136,32.136,0,0,1-7.362-9.913.662.662,0,0,1,.129-.752l.165-.165a.662.662,0,0,1,.467-.193l.058,0a.661.661,0,0,1,.483.28,33.427,33.427,0,0,0,27.534,14.086c13.667,0,30.286-8.62,32.342-32.874A19.031,19.031,0,0,0,399.3,224.9a17.349,17.349,0,0,0-10.244,3.073,32.634,32.634,0,0,1,9.14,8.784.66.66,0,0,1-.082.833l-.166.166a.662.662,0,0,1-.911.021A49.848,49.848,0,0,0,364.455,224.9c-6.792,0-28.882,2.313-29.069,32" transform="translate(317.657 213.011)" fill="#fff"/>
    <path id="パス_15" data-name="パス 15" d="M76.772,229.79c.056-.524.144-1.012.187-1.552a.665.665,0,0,0-.273-.588,19.92,19.92,0,0,0-11.449-3.429,18.287,18.287,0,0,0-11.821,3.955.658.658,0,0,0,.09,1.073,30.98,30.98,0,0,1,4.609,3.378c-.049.041-.1.074-.152.115-.033.027-.045.07-.074.1a50.741,50.741,0,0,0-27.5-8.622C7.983,224.221,0,241.626,0,257.914a.66.66,0,0,0,.323.569,24.873,24.873,0,0,0,4.177,2c-.035.754-.07,1.505-.07,2.255a.987.987,0,0,0,.485.853,21.662,21.662,0,0,0,11.406,3.277,28.208,28.208,0,0,0,11.809-2.9.989.989,0,0,0,.271-1.614q-.543-.52-1.038-1.011a35.706,35.706,0,0,0,20.667,6.513c14.44,0,32.013-9.1,34.017-34.768a.988.988,0,0,0-.407-.88,17.8,17.8,0,0,0-4.868-2.413M1.32,257.537c.187-29.682,22.277-32,29.069-32a49.849,49.849,0,0,1,32.585,12.876.662.662,0,0,0,.911-.021l.166-.166a.66.66,0,0,0,.082-.833,32.635,32.635,0,0,0-9.14-8.784,17.349,17.349,0,0,1,10.244-3.073,19.031,19.031,0,0,1,10.374,2.967c-2.056,24.254-18.675,32.874-32.342,32.874A33.427,33.427,0,0,1,15.735,247.3a.661.661,0,0,0-.483-.28l-.058,0a.662.662,0,0,0-.467.193l-.166.165a.662.662,0,0,0-.129.752,32.135,32.135,0,0,0,7.362,9.913,25.808,25.808,0,0,1-10.234,2.356,19.948,19.948,0,0,1-10.24-2.856" transform="translate(0 212.368)"/>
    <path id="パス_16" data-name="パス 16" d="M598.238,300.35c0-23.93,4.2-42.6,12.837-57.063a.985.985,0,0,0-.165-1.221,31.55,31.55,0,0,0-4.878-3.766v0a.664.664,0,0,0-.109-.814c-6.525-6.278-17.355-10.332-27.591-10.332-11.025,0-19.209,4.048-25.291,10.649-.8-.512-1.638-.991-2.5-1.445.084-.117.164-.249.249-.366a.657.657,0,0,0-.123-.907c-6.365-5.041-15.371-7.931-24.713-7.931-20.192,0-33.368,14.3-38.32,40.853-.95-13.486-5.651-26.283-14.656-32.476a22.183,22.183,0,0,0-17.565-8.377,26.393,26.393,0,0,0-17.382,7.1c-.58-.117-1.17-.232-1.766-.317a24.265,24.265,0,0,1,1.686-1.877.659.659,0,0,0-.247-1.088,34.146,34.146,0,0,0-12.02-1.924c-21.125,0-43.4,17.711-52.308,46.093,2.006-12.386,5.641-22.922,10.974-31.849a.993.993,0,0,0-.152-1.207,31.667,31.667,0,0,0-4.9-3.768l.01-.014a.663.663,0,0,0-.1-.806,41.671,41.671,0,0,0-27.6-10.339c-21.1,0-33.837,15.316-38.037,45.579-.4.923-.794,1.832-1.2,2.775-.271.631-.551,1.275-.824,1.916a125.886,125.886,0,0,0,1.932-19.068c0-11.395-3.372-19.156-10.018-23.262-3.939-5.267-10.226-7.938-18.854-7.938-11.99,0-21.465,5.129-28.95,13.5-.645-.541-1.336-1.024-2.015-1.519a.653.653,0,0,0-.177-.456c-7.158-7.434-17.3-11.529-28.551-11.529-20.971,0-33.294,14.286-37.362,43.484a113.227,113.227,0,0,1-21.718,10.631,49.622,49.622,0,0,0,2.076-14.658c0-13.8-4.942-24.67-12.849-29.982a24.2,24.2,0,0,0-2.821-2.923,24.607,24.607,0,0,1,6.685,4.461c.269.366.539.72.8,1.11a.66.66,0,0,0,.631.275,36.537,36.537,0,0,1,3.857,4.732,1,1,0,0,0,.985.417c16.072-2.753,28.193-16.259,28.193-31.411,0-7.742-3.351-15.752-11.418-21.685-6.836-7.909-19.686-13.759-40.812-13.759-49.409,0-71.912,22.6-71.912,43.6,0,9.375,4.025,17.692,11.04,24.238a42.282,42.282,0,0,0,11.173,10.145c-1.965-.59-3.877-1.24-5.746-1.965a.672.672,0,0,0-.4-.027C60.581,259.9,43.3,280.051,43.3,302.843c0,11.4,4.9,21.7,13.385,30.044,12.485,16.052,36.939,26.493,66.353,26.493,34.388,0,55.712-15.507,67.98-29.583,2.621,7.407,6.243,13.231,10.779,17.331,5.838,8,13.805,12.251,23.63,12.251,17.283,0,23.724-12.2,25.879-18.4a28.49,28.49,0,0,0,5.69,6.891,26.247,26.247,0,0,0,21.993,11.511,29.552,29.552,0,0,0,6.132-.646c-4.26,4.568-7.08,10.123-7.08,16.305a17.421,17.421,0,0,0,7.023,14.245c5.713,9.329,20.916,14.214,44.878,14.214,29.6,0,47.944-5.73,47.944-34.256,0-4.769-.956-11.73-2.169-20.54-.915-6.665-1.935-14.136-2.745-22.1a38.264,38.264,0,0,0,11.112,16.7c8.614,10.758,22.661,16.074,42.35,16.074,14.35,0,26.787-4.65,34.205-12.767,12.29-.8,22.548-5.978,30.085-15.073,2.492,6.741,5.853,12.016,10.057,15.774a28.1,28.1,0,0,0,12.452,10c-5.6,5.228-8.464,11.182-8.464,17.725a17.431,17.431,0,0,0,7.019,14.245c5.717,9.327,20.918,14.214,44.882,14.214,29.6,0,47.937-5.73,47.937-34.256,0-4.769-.956-11.73-2.165-20.54-1.873-13.63-4.2-30.593-4.2-48.351m-478.161-6.478c.362.356.757.676,1.137,1.011-.2-.136-.4-.275-.6-.415-.173-.2-.366-.386-.533-.6m-75.457,8.97c0-22.12,16.773-41.7,40.818-47.676,10.879,4.184,22.972,6.083,40.382,6.34a.553.553,0,0,0,.471-.191.652.652,0,0,0,.2-.469v-.711a.659.659,0,0,0-.658-.66c-32.019,0-55.256-15.994-55.256-38.032,0-27.758,35.512-42.28,70.592-42.28,33.783,0,45.82,15.137,45.82,29.3,0,14.232-11.325,26.935-26.409,29.713-7.306-10.464-15.6-12.676-21.3-12.676-13.089,0-25.938,11.369-29.891,26.446a.658.658,0,0,0,.343.755l.469.238a.667.667,0,0,0,.522.031.659.659,0,0,0,.38-.36c6.04-14.016,16.564-22.723,27.47-22.723,13.5,0,22.933,13.116,22.933,31.9,0,20.209-10.544,33.787-26.236,33.787-15.914,0-25.763-12.639-25.763-24.349a.661.661,0,0,0-.66-.66h-.475a.661.661,0,0,0-.66.66c0,18.432,14.253,29.447,28.031,29.447,6.449,0,18.266-2.136,25.241-16.391a114.01,114.01,0,0,0,26.345-11.948,182.645,182.645,0,0,0-1.287,22.721,124.221,124.221,0,0,0,2.257,24.807c-.37.479-.72.966-1.106,1.441-11.621,14.419-33.01,31.606-68.909,31.606-35.709,0-73.658-17.548-73.658-50.067m201.955,11.8c0-21.849,7.315-47.123,14.563-62.476a.672.672,0,0,0,.012-.541.659.659,0,0,0-.4-.366l-.707-.238a.658.658,0,0,0-.783.3,128.959,128.959,0,0,0-17.074,64.269,69.149,69.149,0,0,0,3.038,19.339c-1.784,5.563-7.664,17.988-24.557,17.988-21.483,0-33.312-20.546-33.312-57.853,0-44.8,12.285-66.582,37.558-66.582,10.68,0,20.311,3.8,27.2,10.709-13.429,16.854-21.132,45.242-22.9,84.395a.652.652,0,0,0,.181.485.658.658,0,0,0,.477.2h.469a.657.657,0,0,0,.656-.6c3.826-43.427,16.229-95.192,53.611-95.192,15.116,0,22.464,8.2,22.464,25.06,0,10.219-3.355,33.15-10.811,52.135a.662.662,0,0,0,1.135.65c6.657-8.425,11.416-19.2,15.6-28.919a194.471,194.471,0,0,0-.976,20.254c0,6.486.2,12.464.572,18.085-7.049,18.611-19.247,37.171-38.366,37.171-13.365,0-27.651-10.053-27.651-38.271m68.545,35.86c-.378-1.367-.748-2.753-1.094-4.167a.659.659,0,0,0-.643-.5,33.861,33.861,0,0,0-9.777,1.6,70.742,70.742,0,0,0,10.559-15.768c.88,6.583,1.992,12.732,3.267,18.689-.757.021-1.525.058-2.313.144m-35.757,24.54c0-15.978,19.818-27.6,33.508-27.885a169.493,169.493,0,0,0,10.772,30.052.655.655,0,0,0,.6.38h.475a.664.664,0,0,0,.637-.829l-.343-1.293c-6.26-23.646-11.669-44.068-11.669-77.81,0-45.906,12.876-69.18,38.271-69.18a40.644,40.644,0,0,1,26.294,9.609c-8.61,14.654-12.8,33.456-12.8,57.448,0,17.869,2.337,34.895,4.219,48.573,1.2,8.75,2.15,15.661,2.15,20.318,0,20.13-7.742,32.6-46.291,32.6-20.906,0-45.82-3.814-45.82-21.989m91.305-72.9c0-19.364,6.128-37.609,17.252-51.375,10.478-12.964,24.244-20.4,37.767-20.4a32.86,32.86,0,0,1,10.606,1.519,31.583,31.583,0,0,0-6.753,12.493.655.655,0,0,0,.335.781l.475.238a.656.656,0,0,0,.876-.28c5.456-10.265,14.726-16.64,24.189-16.64,17.96,0,26,20.05,26,39.922,0,17.306-6.461,35.2-17.271,35.2-6.825,0-10.9-6.281-10.9-16.8a.661.661,0,0,0-.4-.609.669.669,0,0,0-.72.14l-.471.469a.663.663,0,0,0-.2.469c0,13.015,4.453,20.48,12.22,20.48,6.836,0,15.392-6.5,21.8-17.258q-.044,2.018-.043,4.095a131.275,131.275,0,0,0,2.459,26.954,41.537,41.537,0,0,1-32.509,18.63.653.653,0,0,0-.454.22c-7.074,7.956-19.189,12.518-33.247,12.518-34.8,0-51.007-16.134-51.007-50.772m171.948,50.951c-.191-.645-.343-1.289-.52-1.934.6-.559,1.2-1.153,1.787-1.764.138.664.286,1.344.432,2.021-.541.59-1.12,1.137-1.7,1.676m-36.524,21.95c0-6.35,2.86-12.142,8.505-17.222a17.648,17.648,0,0,0,3.1.185,31.509,31.509,0,0,0,22.3-9.479,159.353,159.353,0,0,0,10.37,28.683.657.657,0,0,0,.6.38h.469a.659.659,0,0,0,.524-.259.673.673,0,0,0,.115-.574c-3.522-13.067-6.346-23.825-7.956-33.148,9.566-11.907,12.466-25.552,13.864-32.132a.66.66,0,0,0-.645-.8h-.477a.657.657,0,0,0-.623.45c-8.41,24.992-23.042,41.784-36.415,41.784-27.338,0-33.078-31.717-33.078-58.323,0-24.692,5.1-66.113,39.211-66.113,8.8,0,17.291,2.638,23.395,7.259-10.485,14.722-15.8,41.1-15.8,78.433a.66.66,0,0,0,1.184.4l2.36-3.067a.654.654,0,0,0,.136-.4c0-35.469,4.26-82.625,41.1-82.625,9.716,0,19.97,3.756,26.3,9.605-8.614,14.662-12.8,33.463-12.8,57.452,0,17.869,2.338,34.895,4.219,48.573,1.2,8.75,2.154,15.661,2.154,20.318,0,20.13-7.746,32.6-46.291,32.6-20.9,0-45.818-3.814-45.818-21.989" transform="translate(41.011 168.443)"/>
    <path id="パス_17" data-name="パス 17" d="M416.348,232.2a17.8,17.8,0,0,0-4.868-2.413c.057-.524.144-1.012.187-1.552a.665.665,0,0,0-.273-.588,19.92,19.92,0,0,0-11.449-3.429,18.287,18.287,0,0,0-11.821,3.955.658.658,0,0,0,.09,1.073,30.979,30.979,0,0,1,4.609,3.378c-.049.041-.1.074-.152.115-.033.027-.045.07-.074.1a50.741,50.741,0,0,0-27.5-8.622c-22.406,0-30.389,17.405-30.389,33.693a.66.66,0,0,0,.323.569,24.871,24.871,0,0,0,4.177,2c-.035.754-.07,1.505-.07,2.255a.987.987,0,0,0,.485.853,21.662,21.662,0,0,0,11.406,3.277,28.2,28.2,0,0,0,11.809-2.9.989.989,0,0,0,.271-1.614c-.364-.349-.711-.683-1.04-1.013a35.709,35.709,0,0,0,20.669,6.515c14.44,0,32.013-9.1,34.017-34.768a.988.988,0,0,0-.407-.88m-80.32,25.334c.187-29.682,22.277-32,29.069-32a49.848,49.848,0,0,1,32.585,12.876.662.662,0,0,0,.911-.021l.166-.166a.66.66,0,0,0,.082-.833,32.634,32.634,0,0,0-9.14-8.784,17.349,17.349,0,0,1,10.244-3.073,19.031,19.031,0,0,1,10.374,2.967c-2.056,24.254-18.675,32.874-32.342,32.874A33.427,33.427,0,0,1,350.443,247.3a.661.661,0,0,0-.483-.28l-.058,0a.662.662,0,0,0-.467.193l-.165.165a.662.662,0,0,0-.129.752,32.137,32.137,0,0,0,7.362,9.913,25.808,25.808,0,0,1-10.234,2.356,19.948,19.948,0,0,1-10.24-2.856" transform="translate(317.015 212.368)"/>
    <path id="パス_18" data-name="パス 18" d="M95.891,217.682c7.915,11.12,24.485,17.736,46.55,17.736,26.388,0,42.557-8.686,47.537-25.26a27.956,27.956,0,0,0,8.042,12.107c6.011,8.793,16.428,13.153,31.472,13.153,10.213,0,19.078-3.3,24.405-9.066a29.3,29.3,0,0,0,21.909-11.511,27.521,27.521,0,0,0,7.7,11.05c4.235,6.2,10.117,9.527,17.47,9.527,11.85,0,16.656-8.25,18.334-12.456a19.342,19.342,0,0,0,3.626,3.6,18.568,18.568,0,0,0,16.046,8.852c10.45,0,18.1-7.37,23.5-16.683a21.314,21.314,0,0,0,6.626,9.144c2.354,3.762,5.409,6.387,9.216,7.224a16.7,16.7,0,0,0-3.415,9.909,12.52,12.52,0,0,0,5.766,10.659c3.637,7.255,14.728,11.054,32.634,11.054,28.473,0,34.307-9.831,34.307-24.594a85.407,85.407,0,0,0-1.423-13.077,225.335,225.335,0,0,1-3.1-38.657c0-14.426,2.969-26.7,9.079-37.516a.989.989,0,0,0-.175-1.2,24.323,24.323,0,0,0-4.967-3.6c.033-.06.06-.125.1-.185a.664.664,0,0,0-.117-.8c-4.665-4.488-12.2-7.385-19.212-7.385a26.072,26.072,0,0,0-14.411,4.118.659.659,0,0,0,.01,1.124,33.162,33.162,0,0,1,4.564,3.431.966.966,0,0,0-.374.518c-8.287-6.083-16.142-9.19-23.44-9.19-14.171,0-24.717,11.51-30.529,26.966.08-1.2.123-2.3.123-3.234,0-8.686-2.716-14.452-8.083-17.256-2.775-4.3-7.467-6.476-14.072-6.476-8.577,0-15.351,3.668-20.7,9.658-.378-.267-.761-.522-1.153-.769a.628.628,0,0,0-.109-.648,27.917,27.917,0,0,0-20.4-8.24c-14.3,0-22.963,9.3-26.247,28.232-1.075-9.146-4.65-17.513-11.075-21.417a16.087,16.087,0,0,0-13.235-6.815,19.283,19.283,0,0,0-13.387,5.978c-.218-.02-.426-.053-.65-.068a17.113,17.113,0,0,1,1.784-2.1.662.662,0,0,0-.247-1.088,24.44,24.44,0,0,0-8.595-1.377c-16.743,0-34.5,15.595-39.046,39.885-4.529-12.273-13.683-23.074-25.151-33.216q-2.775-2.681-5.779-5.294a144.284,144.284,0,0,1,23.615,21.008.992.992,0,0,0,1.205.2c10.994-5.98,18.1-15.521,18.1-24.308,0-8.669-4.305-15.525-11.005-20.492-8.061-9.313-23.229-14.119-38.273-14.119-22.813,0-47.368,10.789-47.368,34.48,0,16.5,10.254,32.114,23.868,46.745a235.9,235.9,0,0,0,18.387,18.778c-2.481-1.99-4.92-4.034-7.3-6.132a162.633,162.633,0,0,1-21.2-24,.991.991,0,0,0-.81-.421c-.36,0-.709.043-1.067.056-1.1-1.425-2.157-2.851-3.152-4.264a.66.66,0,0,0-.539-.28c-14.212,0-25.772,12.012-25.772,26.777a27.8,27.8,0,0,0,9.6,21.222m306.065,10.976c-.4-1.373-.783-2.784-1.137-4.229a.657.657,0,0,0-.641-.5,21.485,21.485,0,0,0-3.156.271,70.2,70.2,0,0,0,4.05-6.834c.586,3.577,1.355,7.432,2.161,11.14-.417.035-.845.1-1.277.158m-7.8-87.625c9.728,0,20.558,5.74,32.19,17.059a.655.655,0,0,0,.927-.008l.333-.335a.662.662,0,0,0,.051-.872C425.6,154.258,420.4,148.016,415,144.41a24.332,24.332,0,0,1,12.806-3.376A28.234,28.234,0,0,1,445.73,147.7c-6.085,10.96-9.042,23.354-9.042,37.872a226.466,226.466,0,0,0,3.119,38.914,84.325,84.325,0,0,1,1.4,12.82c0,14.167-5.462,22.945-32.657,22.945-26.709,0-32.317-8.289-32.317-15.242,0-12.018,14.89-19.466,23.434-19.76a120.642,120.642,0,0,0,7.617,21.21.662.662,0,0,0,.6.38h.335a.668.668,0,0,0,.524-.259.653.653,0,0,0,.111-.574c-.072-.276-7.45-27.612-7.508-38.536,5.67-13.562,9.459-30.14,12.707-46.038a.66.66,0,0,0-.646-.793h-.331a.659.659,0,0,0-.639.493c-8.271,31.573-19.857,67.813-36.193,67.813-11.344,0-16.418-16.652-16.418-33.158,0-26.915,12.841-54.757,34.328-54.757m-94.921,0a26.691,26.691,0,0,1,19.041,7.424c-9.488,12.008-14.933,32.143-16.183,59.861a.656.656,0,0,0,.658.689h.337a.657.657,0,0,0,.654-.6c2.707-30.736,11.469-67.373,37.852-67.373,10.6,0,15.746,5.754,15.746,17.592,0,7.236-2.375,23.475-7.656,36.924a.66.66,0,0,0,1.133.65c3.715-4.7,6.6-10.429,9.107-16.011a86.935,86.935,0,0,0-1.418,15.6,75,75,0,0,0,.876,11.49c-5.156,11.445-13.252,21.668-25.157,21.668-14.323,0-19.43-13.928-19.43-26.964,0-15.474,5.181-33.374,10.316-44.251a.658.658,0,0,0-.387-.907l-.5-.167a.68.68,0,0,0-.21-.035.665.665,0,0,0-.574.331,91.7,91.7,0,0,0-12.14,45.7,49.142,49.142,0,0,0,2.146,13.72c-1.273,3.935-5.419,12.575-17.226,12.575-15.12,0-23.445-14.51-23.445-40.859,0-31.664,8.655-47.057,26.46-47.057m-71.653,1.344a23.255,23.255,0,0,1,7.183.979,22.846,22.846,0,0,0-4.632,8.715.656.656,0,0,0,.337.783l.337.167a.66.66,0,0,0,.876-.28c3.84-7.222,10.351-11.708,16.995-11.708,12.614,0,18.258,14.134,18.258,28.14,0,12.183-4.511,24.787-12.063,24.787-4.722,0-7.541-4.385-7.541-11.73a.662.662,0,0,0-1.125-.469l-.335.333a.659.659,0,0,0-.2.469c0,13.289,6.2,14.724,8.861,14.724,5.423,0,12.351-5.66,17.022-14.853-.064,1.828-.1,3.707-.1,5.655a89.844,89.844,0,0,0,1.416,16.543,29.473,29.473,0,0,1-24.23,15.277.661.661,0,0,0-.454.22c-4.985,5.6-13.531,8.819-23.449,8.819-24.563,0-36-11.387-36-35.835,0-24,15.955-50.737,38.849-50.737M111.726,171.006c11.258,15.9,29.061,32.739,47.689,45.09a.658.658,0,0,0,.537.088.667.667,0,0,0,.421-.347l.166-.333a.662.662,0,0,0-.158-.787l-2.2-1.941c-24.836-21.9-52.986-46.712-52.986-73.571,0-22.783,23.87-33.16,46.048-33.16,21.3,0,42.868,9.78,42.868,28.471,0,8.073-6.57,16.9-16.782,22.608-14.537-15.895-27.813-24.353-46.34-35.4a.658.658,0,0,0-.8.1l-.167.167A.658.658,0,0,0,130.1,123c29.055,20.538,55.137,41.369,55.137,70.276,0,23.669-16,35.67-47.555,35.67-30.416,0-50.069-12.752-50.069-32.488,0-13.92,10.785-25.264,24.111-25.455" transform="translate(81.732 99.189)"/>
    <path id="パス_19" data-name="パス 19" d="M160.407,172.725a.655.655,0,0,0,.364-.111l.5-.333a.656.656,0,0,0,.245-.8,47.84,47.84,0,0,1-3.466-17.832,54.91,54.91,0,0,1,2.812-17.374.655.655,0,0,0-.16-.674l-.333-.333a.642.642,0,0,0-.574-.185.664.664,0,0,0-.485.362,46.042,46.042,0,0,0-4.922,19.874,27.105,27.105,0,0,0,5.493,17.143.656.656,0,0,0,.524.259" transform="translate(146.229 127.935)"/>
    <path id="パス_20" data-name="パス 20" d="M244.637,168.924h.335a.663.663,0,0,0,.588-.356c5.121-9.917,9.707-24.355,13.6-37.111a.661.661,0,0,0-.886-.8c-5.8,2.418-11.439,24.513-14.286,37.467a.659.659,0,0,0,.644.8" transform="translate(231.08 123.701)"/>
    <path id="パス_21" data-name="パス 21" d="M288.751,205.767a24.251,24.251,0,0,0,10.442,8.739c-10,.43-15.526,12.579-15.526,21.043a11.669,11.669,0,0,0,5.6,10.341c2.829,6.052,10.382,8.359,17.565,8.359,7.717,0,16.728-3.24,16.728-12.374,0-7.541-4.712-16.284-11.254-20.453a21.73,21.73,0,0,0-5.9-5.059,31.514,31.514,0,0,0,3.612.22,22.256,22.256,0,0,0,11.9-3.326.99.99,0,0,0,.446-1.085,95.388,95.388,0,0,1-2.646-23.033c0-18.819,4.338-38.17,13.653-60.9a.99.99,0,0,0,.037-.644,20.623,20.623,0,0,0-8.466-11.167,23.236,23.236,0,0,0-17.674-8.61c-24.573,0-31.129,36.931-31.129,58.753,0,12.1,1.978,30.114,12.617,39.194m28.4,31.289c0,7.915-8.123,10.725-15.079,10.725-4.009,0-17.086-.882-17.086-12.232,0-7.093,4.926-19.763,14.742-19.763,9.22,0,17.423,11.9,17.423,21.271m-9.89-127.915c8.8,0,17.423,6.073,19.728,13.868-9.338,22.846-13.688,42.335-13.688,61.312a97.442,97.442,0,0,0,2.578,22.955,20.613,20.613,0,0,1-10.626,2.839c-24.189,0-27.8-27.279-27.8-43.54,0-21.331,6.278-57.433,29.809-57.433" transform="translate(261.537 102.121)"/>
    <path id="パス_22" data-name="パス 22" d="M216.37,173.6c-15.25,0-23.309,6.428-23.309,18.589,0,7.385,3.4,19.985,10.964,26.115,3.394,5.016,8.174,8.715,14.508,8.715,14.623,0,28.36-19.75,28.36-31.66,0-4.589-2.261-9.615-7.8-13.058-3.466-4.843-10.526-8.7-22.725-8.7m-21.989,18.589c0-11.459,7.4-17.269,21.989-17.269,11.124,0,24.113,4.091,24.113,15.62,0,5.76-3.219,13.2-8.4,19.425-5.6,6.725-12.273,10.585-18.309,10.585-12.911,0-19.392-18.18-19.392-28.36" transform="translate(182.856 164.427)"/>
    <path id="パス_23" data-name="パス 23" d="M242.105,273.023l.707-.469a.657.657,0,0,0,.245-.8,67.658,67.658,0,0,1-4.9-25.231,77.592,77.592,0,0,1,3.978-24.571.664.664,0,0,0-.16-.674l-.471-.469a.648.648,0,0,0-.574-.185.664.664,0,0,0-.485.362,64.628,64.628,0,0,0-6.91,27.891c0,9.4,2.514,17.252,7.685,23.995a.659.659,0,0,0,.89.148" transform="translate(221.185 208.955)"/>
    <path id="パス_24" data-name="パス 24" d="M98.453,79.534h5.429v20.472h14.539v4.652H98.453Z" transform="translate(93.248 75.33)"/>
    <rect id="長方形_1" data-name="長方形 1" width="5.429" height="25.124" transform="translate(223.113 154.864)"/>
    <path id="パス_25" data-name="パス 25" d="M122.852,79.534H128.4l5.5,14.7c.543,1.435,1.474,4.225,1.513,4.42.076-.195.968-2.985,1.511-4.42l5.584-14.7h5.5L138.244,104.7h-5.621Z" transform="translate(116.358 75.33)"/>
    <path id="パス_26" data-name="パス 26" d="M141.235,79.534h19.658v4.652h-14.23V89.3h13.492v4.615H146.664v6.087h14.773v4.652h-20.2Z" transform="translate(133.77 75.33)"/>
    <path id="パス_27" data-name="パス 27" d="M172.572,84.186h-8.53V79.534h22.489v4.652H178v20.472h-5.429Z" transform="translate(155.37 75.33)"/>
    <path id="パス_28" data-name="パス 28" d="M180.653,92.285a12.863,12.863,0,0,1,13.3-12.95c7.755,0,13.3,5.777,13.3,12.95a13.3,13.3,0,0,1-26.6,0m20.938,0c0-4.459-3.219-8.026-7.6-8.026a8.054,8.054,0,0,0,0,16.091c4.381,0,7.6-3.567,7.6-8.065" transform="translate(171.104 75.141)"/>
    <path id="パス_29" data-name="パス 29" d="M200.292,94.654V79.533h5.427V94.384c0,3.76,2.132,5.738,5.429,5.738s5.427-1.978,5.427-5.738V79.533H222V94.654c0,6.63-4.418,10.431-10.855,10.431s-10.855-3.8-10.855-10.431" transform="translate(189.704 75.329)"/>
    <path id="パス_30" data-name="パス 30" d="M217.879,79.534h10.777c7.407,0,11.284,4.342,11.284,9.732a8.989,8.989,0,0,1-4.769,7.987l5.234,7.4h-6.243l-3.877-5.894a13.176,13.176,0,0,1-2.132.195h-4.848v5.7h-5.427Zm10.933,14.771a5.087,5.087,0,1,0,.039-10.158h-5.545V94.305Z" transform="translate(206.362 75.33)"/>
    <path id="パス_31" data-name="パス 31" d="M243.174,101.513c8.491-6.862,12.37-10.857,12.37-14.115,0-1.821-1.2-3.372-3.686-3.372a8.823,8.823,0,0,0-5.66,2.638l-2.636-3.413a11.97,11.97,0,0,1,8.725-3.916c4.769,0,8.723,2.636,8.723,7.6,0,4.769-4.807,9.81-9.461,13.3h10.236v4.613H243.174Z" transform="translate(230.32 75.141)"/>
    <path id="パス_32" data-name="パス 32" d="M258.63,92.285c0-7.6,4.11-12.95,10.041-12.95,5.894,0,10,5.351,10,12.95s-4.11,12.95-10,12.95c-5.931,0-10.041-5.351-10.041-12.95m14.617,0c0-4.885-1.55-8.3-4.576-8.3-3.063,0-4.652,3.411-4.652,8.3s1.589,8.3,4.652,8.3c3.026,0,4.576-3.411,4.576-8.3" transform="translate(244.959 75.141)"/>
    <path id="パス_33" data-name="パス 33" d="M274.564,101.513c8.491-6.862,12.37-10.857,12.37-14.115,0-1.821-1.2-3.372-3.686-3.372a8.823,8.823,0,0,0-5.66,2.638l-2.636-3.413a11.97,11.97,0,0,1,8.725-3.916c4.769,0,8.723,2.636,8.723,7.6,0,4.769-4.807,9.81-9.461,13.3h10.236v4.613H274.564Z" transform="translate(260.05 75.141)"/>
    <path id="パス_34" data-name="パス 34" d="M290.1,101.513c8.491-6.862,12.37-10.857,12.37-14.115,0-1.821-1.2-3.372-3.686-3.372a8.823,8.823,0,0,0-5.66,2.638l-2.636-3.413a11.97,11.97,0,0,1,8.725-3.916c4.769,0,8.723,2.636,8.723,7.6,0,4.769-4.808,9.81-9.461,13.3h10.236v4.613H290.1Z" transform="translate(274.765 75.141)"/>
    <path id="パス_35" data-name="パス 35" d="M313.483,93.03l-35.37-1.657q.33-2.418.662-4.835l9.315-68,2.138-15.61c.608-4.434-4.8-3.143-6.443-.611L267.791,27l-25.48,39.326q-1.475,2.272-2.948,4.549Q220.218,54.2,201.069,37.538q-2.93-2.553-5.863-5.1c-2.533-2.206-7.354,1.567-6.943,4.539l4.165,30.109q1.414,10.2,2.823,20.408l-17.836-.835-19.1-.894a5.575,5.575,0,0,0-4.8,2.892c-.691,1.2-1.3,3.585.518,4.241q19.066,6.87,38.129,13.741l6.034,2.175q.432,3.119.863,6.241.759,5.491,1.521,10.982c.656,4.747,8.018.563,7.518-3.059l-1.542-11.151,46.307,16.689L266.7,133.5c2.481.894,5.857-1.554,6.206-4.095l4.188-30.578,13.813.646,19.1.9a5.706,5.706,0,0,0,5.074-3.359c.7-1.5.532-3.877-1.6-3.976M197.445,45.946q16.385,14.262,32.766,28.522,2.932,2.55,5.863,5.1c1.852,1.61,4.833-.025,5.96-1.768q8-12.343,16-24.686,11.516-17.775,23.031-35.547l-4.036,29.476q-3.014,22-6.026,43.994l-10-.469-57.756-2.7q-2.9-20.962-5.8-41.92M182.5,94.391q6.9.324,13.8.646.315,2.278.631,4.552l-14.426-5.2M267.71,115.05q-.657,4.79-1.312,9.578-16.373-5.9-32.751-11.8L205.284,102.6q-.5-3.6-.995-7.191,1.516.073,3.03.142l62.659,2.936q-1.133,8.28-2.268,16.56" transform="translate(144.759 0)"/>
    <path id="パス_36" data-name="パス 36" d="M62.725,39.252h9.34L91.151,83.109H81.54l-2.977-6.971H56.3l-2.979,6.971H43.639ZM75.584,68.761l-5.076-12.52c-1.353-3.318-3.045-7.717-3.113-7.851-.066.134-1.758,4.533-3.113,7.851L59.2,68.761Z" transform="translate(41.332 37.177)"/>
    <path id="パス_37" data-name="パス 37" d="M77.56,39.251H96.375c12.927,0,19.7,7.582,19.7,16.989a15.691,15.691,0,0,1-8.324,13.943l9.136,12.927h-10.9L99.218,72.824a23.153,23.153,0,0,1-3.723.337h-8.46v9.95H77.56ZM96.646,65.039c5.549,0,9.409-3.994,9.409-8.8,0-5.008-3.859-8.933-9.34-8.933H87.035V65.039Z" transform="translate(73.46 37.176)"/>
    <path id="パス_38" data-name="パス 38" d="M125.006,39.252h9.34l19.086,43.857h-9.611l-2.977-6.971H118.576L115.6,83.109H105.92Zm12.859,29.509-5.076-12.52c-1.353-3.318-3.045-7.717-3.113-7.851-.068.134-1.758,4.533-3.113,7.851l-5.076,12.52Z" transform="translate(100.321 37.177)"/>
    <rect id="長方形_2" data-name="長方形 2" width="9.475" height="43.857" transform="translate(272.29 76.429)"/>
    <path id="パス_39" data-name="パス 39" d="M244.109,39.252h8.19L259.2,49c2.572,3.587,7.919,11.369,7.919,11.369s5.415-7.715,7.919-11.3l6.9-9.816h8.19V83.109h-9.477V55.361s-1.692,2.775-3.994,6.091l-9.543,13.6-9.611-13.671c-2.233-3.182-3.925-6.024-3.925-6.024V83.109h-9.475Z" transform="translate(231.205 37.177)"/>
    <path id="パス_40" data-name="パス 40" d="M296.352,39.252h9.34l19.086,43.857h-9.611l-2.977-6.971H289.922l-2.979,6.971h-9.677Zm12.859,29.509-5.076-12.52c-1.353-3.318-3.045-7.717-3.114-7.851-.068.134-1.758,4.533-3.113,7.851l-5.076,12.52Z" transform="translate(262.609 37.177)"/>
    <path id="パス_41" data-name="パス 41" d="M307.19,74.582l6.566-5.211c2.572,4.737,5.82,5.82,9.136,5.82,5.213,0,8.867-3.045,8.867-10.084V39.251h9.475V64.9c0,13.13-7.646,18.95-18.206,18.95-6.566,0-12.793-2.843-15.838-9.272" transform="translate(290.952 37.176)"/>
    <path id="パス_42" data-name="パス 42" d="M335.76,65.648v-26.4h9.475V65.173c0,6.566,3.723,10.018,9.477,10.018s9.475-3.452,9.475-10.018V39.251h9.475v26.4c0,11.574-7.715,18.206-18.95,18.206S335.76,77.222,335.76,65.648" transform="translate(318.011 37.176)"/>
  </g>
</svg>
