<svg id="pageto_text" xmlns="http://www.w3.org/2000/svg" xmlns:xlink="http://www.w3.org/1999/xlink" width="106.645" height="107.487" viewBox="0 0 106.645 107.487">
  <defs>
    <clipPath id="clip-path">
      <rect id="長方形_18" data-name="長方形 18" width="106.645" height="107.487" fill="none"/>
    </clipPath>
  </defs>
  <g id="グループ_7" data-name="グループ 7" clip-path="url(#clip-path)">
    <path id="パス_44" data-name="パス 44" d="M154.275,11.111l-.221-1.769-2.345-.6-1.05,1.44L149.4,9.852l4.466-6.017.74.191.985,7.424Zm-.514-4.468c-.022-.216-.046-.512-.054-.781l-.021-.005a7.526,7.526,0,0,1-.425.657L152.34,7.8l1.6.415Z" transform="translate(-87.558 -2.248)"/>
    <path id="パス_45" data-name="パス 45" d="M169.248,15.259l-.783-3.4-.569-.23-1.073,2.654-1.228-.5,2.575-6.367,2.125.86a2.014,2.014,0,0,1,1.235,2.659,1.856,1.856,0,0,1-1.7,1.193l.935,3.746Zm.425-6.017-.7-.283-.678,1.677.7.282a.911.911,0,1,0,.678-1.676" transform="translate(-97.052 -4.346)"/>
    <path id="パス_46" data-name="パス 46" d="M181.54,23.307l.245-1.766-2.108-1.192-1.387,1.119-1.133-.641,5.872-4.653.665.376-.974,7.425Zm.662-4.448c.035-.215.089-.506.15-.768l-.019-.01a7.445,7.445,0,0,1-.581.524l-1.223,1,1.443.816Z" transform="translate(-103.828 -9.479)"/>
    <rect id="長方形_14" data-name="長方形 14" width="6.868" height="1.356" transform="translate(79.435 14.988) rotate(-54.818)"/>
    <path id="パス_47" data-name="パス 47" d="M205.887,41.178l1.819-2.169c.274-.32.608-.716.936-1.058l-.015-.015c-.457.2-1.05.4-1.5.541l-3.021.982-.373-.373.967-3.037c.144-.449.35-1,.54-1.484l-.015-.015c-.35.335-.753.678-1.05.929L202.005,37.3l-.875-.875,5.274-4.437.716.715-1.088,3.448c-.16.51-.388,1.195-.594,1.69l.015.015c.479-.205,1.134-.434,1.674-.609l3.425-1.111.685.685-4.422,5.29Z" transform="translate(-117.878 -18.745)"/>
    <path id="パス_48" data-name="パス 48" d="M218.157,58.654l.96-1.5L217.7,55.188l-1.729.437-.762-1.056,7.28-1.775.447.62-3.986,6.34Zm2.46-3.765c.122-.181.292-.423.457-.635l-.012-.017a7.386,7.386,0,0,1-.747.233l-1.529.4.969,1.344Z" transform="translate(-126.13 -30.941)"/>
    <path id="パス_49" data-name="パス 49" d="M220.755,66.518l.322-1.182a2,2,0,0,0,2.731.332l4.636-2.689.675,1.164-4.729,2.743a2.867,2.867,0,0,1-3.635-.368" transform="translate(-129.38 -36.911)"/>
    <path id="パス_50" data-name="パス 50" d="M230.261,75.22a2.616,2.616,0,0,1,1.166-3.7l4.034-1.817.557,1.236-3.926,1.769a1.55,1.55,0,0,0,1.264,2.831l3.936-1.773.544,1.207L233.8,76.79a2.608,2.608,0,0,1-3.54-1.57" transform="translate(-134.761 -40.851)"/>
    <path id="パス_51" data-name="パス 51" d="M236.372,94.683,243.028,93l.333,1.315L237.8,95.721l.689,2.724-1.1.277Z" transform="translate(-138.532 -54.505)"/>
    <rect id="長方形_15" data-name="長方形 15" width="6.866" height="1.356" transform="translate(98.928 44.865) rotate(-9.596)"/>
    <path id="パス_52" data-name="パス 52" d="M240.37,116.125l-.061-.848,6.737-3.11.1,1.4-3.061,1.4c-.449.2-.994.428-1.53.629l0,.021c.548.112,1.119.254,1.6.392l3.231.942.093,1.289Z" transform="translate(-140.84 -65.739)"/>
    <path id="パス_53" data-name="パス 53" d="M240.686,129.427l6.858.294-.164,3.827-1.129-.048.107-2.483-1.72-.074-.089,2.064-1.139-.049.089-2.064-1.742-.075-.121,2.827-1.128-.048Z" transform="translate(-140.956 -75.854)"/>
    <path id="パス_54" data-name="パス 54" d="M243.849,151.175l-5.619-1.155.273-1.328,5.619,1.155.42-2.045,1.107.227-1.113,5.418-1.107-.228Z" transform="translate(-139.622 -86.623)"/>
    <path id="パス_55" data-name="パス 55" d="M233.861,162.588a3.58,3.58,0,1,1,2.159,4.654,3.577,3.577,0,0,1-2.159-4.654m5.613,1.981a2.4,2.4,0,1,0-3.016,1.367,2.3,2.3,0,0,0,3.016-1.367" transform="translate(-136.932 -93.833)"/>
    <path id="パス_56" data-name="パス 56" d="M226.432,179.792a2.617,2.617,0,0,1,3.652-1.313l3.888,2.11-.647,1.193-3.784-2.054a1.551,1.551,0,0,0-1.488,2.72l3.794,2.059-.632,1.164-3.889-2.11a2.608,2.608,0,0,1-.894-3.768" transform="translate(-132.452 -104.41)"/>
    <path id="パス_57" data-name="パス 57" d="M215.657,193.6l3.492.072.362-.5-2.312-1.689.781-1.069,5.544,4.05-1.352,1.851a2.015,2.015,0,0,1-2.88.549,1.855,1.855,0,0,1-.741-1.941l-3.86-.007Zm5.73,1.88.444-.608-1.46-1.066-.444.608a.911.911,0,1,0,1.46,1.067" transform="translate(-125.826 -111.6)"/>
    <path id="パス_58" data-name="パス 58" d="M206.783,205.136l.219.223c.15,2.207.491,4.226,1.231,4.977a1.032,1.032,0,0,0,1.559.111,2.31,2.31,0,0,0,.632-1.152l.939.586a3.006,3.006,0,0,1-.856,1.431,2.062,2.062,0,0,1-3.15-.025c-.853-.866-1.091-2.5-1.224-4l-1.641,1.616-.755-.767Z" transform="translate(-119.407 -120.226)"/>
    <path id="パス_59" data-name="パス 59" d="M196.831,216.043c1.022-.807,2.592-.608,4.113,1.318,1.507,1.909,1.344,3.49.323,4.3-1.005.794-2.59.592-4.1-1.316-1.521-1.925-1.343-3.506-.338-4.3m3.748,4.746c.464-.367.42-1.291-.641-2.634-1.074-1.359-1.95-1.6-2.414-1.233s-.433,1.274.641,2.634c1.06,1.343,1.95,1.6,2.414,1.233" transform="translate(-114.902 -126.356)"/>
    <path id="パス_60" data-name="パス 60" d="M188.038,220.813l.167.263c-.317,2.19-.408,4.235.157,5.125a1.031,1.031,0,0,0,1.5.436,2.3,2.3,0,0,0,.861-.993l.795.77a3.007,3.007,0,0,1-1.137,1.219,2.062,2.062,0,0,1-3.074-.686c-.652-1.026-.54-2.677-.354-4.171l-1.944,1.234-.577-.909Z" transform="translate(-108.091 -129.414)"/>
    <path id="パス_61" data-name="パス 61" d="M177.835,227.015l.139.279c-.544,2.146-.846,4.172-.377,5.116a1.032,1.032,0,0,0,1.448.59,2.308,2.308,0,0,0,.96-.9l.711.849a3.011,3.011,0,0,1-1.259,1.095,2.063,2.063,0,0,1-2.987-1c-.542-1.089-.259-2.721.081-4.188l-2.063,1.026-.479-.964Z" transform="translate(-101.983 -133.048)"/>
    <path id="パス_62" data-name="パス 62" d="M160.107,235.321a3.586,3.586,0,0,1,1.884-.1l.529,1.221a3.347,3.347,0,0,0-2.041-.037c-.637.2-.958.649-.8,1.142s.525.67,1.278.66c1.335-.023,2.136.447,2.438,1.413a1.994,1.994,0,0,1-1.554,2.527,3.263,3.263,0,0,1-1.646.109l-.084-1.135a2.745,2.745,0,0,0,1.355-.029c.606-.19.832-.621.71-1.012s-.5-.53-1.158-.528c-1.3,0-2.236-.337-2.6-1.5-.376-1.2.174-2.253,1.694-2.729" transform="translate(-92.775 -137.807)"/>
    <path id="パス_63" data-name="パス 63" d="M146.587,238.645a2.577,2.577,0,1,1-2.091,3.013,2.525,2.525,0,0,1,2.091-3.013m.749,3.954a1.474,1.474,0,1,0-1.6-1.2,1.392,1.392,0,0,0,1.6,1.2" transform="translate(-84.656 -139.834)"/>
    <path id="パス_64" data-name="パス 64" d="M132.414,240.59l.211,3.06a.821.821,0,0,0,.981.774.881.881,0,0,0,.907-.926l-.209-3.039,1.278-.088.335,4.864-1.159.08-.045-.644H134.7a1.471,1.471,0,0,1-1.45.877,1.617,1.617,0,0,1-1.887-1.564l-.228-3.307Z" transform="translate(-76.856 -140.877)"/>
    <path id="パス_65" data-name="パス 65" d="M120.641,234.9c1.377.055,2.26.866,2.22,1.877a1.356,1.356,0,0,1-1.1,1.325l.569.6a.927.927,0,0,1-.643.717,1.52,1.52,0,0,1,.711,1.354,1.724,1.724,0,0,1-1.993,1.623,2.452,2.452,0,0,1-.674-.113,2.693,2.693,0,0,0-.685-.113,1.8,1.8,0,0,0-.749.142l-.186-1.009a1.349,1.349,0,0,1,.608-.127,1.116,1.116,0,0,1-.148-.609,1.646,1.646,0,0,1,1.764-1.546c.291,0,.464-.035.471-.207a.173.173,0,0,0-.123-.166l-1.018-.407c-.89-.359-1.387-.863-1.352-1.756.038-.957.971-1.642,2.326-1.588m-.514,2.349.7.233a.776.776,0,0,0,.848-.742c.017-.409-.334-.8-1.055-.829-.7-.028-1.068.3-1.081.635a.739.739,0,0,0,.586.7m.318,4.182a.759.759,0,0,0,.814-.69A.743.743,0,0,0,120.5,240a.718.718,0,1,0-.057,1.431" transform="translate(-69.223 -137.667)"/>
    <path id="パス_66" data-name="パス 66" d="M110.5,242.032l-.668,5.862-1.023-.145.987-5.816Zm.563-1.67a.668.668,0,1,1-.563-.786.685.685,0,0,1,.563.786" transform="translate(-63.771 -140.406)"/>
    <path id="パス_67" data-name="パス 67" d="M80.625,241.327a3.207,3.207,0,0,1,3.225-.943,3.249,3.249,0,0,1,1.953,1.794,2.514,2.514,0,0,0,1.514,1.431,2.451,2.451,0,0,0,2.426-.764l.558.558a3.206,3.206,0,0,1-3.225.943,3.25,3.25,0,0,1-1.953-1.794,2.533,2.533,0,0,0-1.514-1.431,2.453,2.453,0,0,0-2.426.764Z" transform="translate(-47.253 -140.808)"/>
    <path id="パス_68" data-name="パス 68" d="M73.142,228.438l-3.083,6.137-3.424-1.72.507-1.01,2.222,1.116.773-1.539-1.847-.928.512-1.019,1.847.928.783-1.558-2.53-1.271.507-1.01Z" transform="translate(-39.053 -132.784)"/>
    <path id="パス_69" data-name="パス 69" d="M61.546,220.912l-1.663,2.576a.821.821,0,0,0,.322,1.207.88.88,0,0,0,1.28-.2l1.652-2.558,1.075.695-2.643,4.095-.976-.63.35-.542-.009-.006a1.472,1.472,0,0,1-1.686-.166A1.617,1.617,0,0,1,58.673,223l1.8-2.784Z" transform="translate(-34.208 -129.064)"/>
    <path id="パス_70" data-name="パス 70" d="M50.424,220.009a.721.721,0,1,1-.88,1.142.721.721,0,0,1,.88-1.142m5.7-5.935.156,1.085a1.316,1.316,0,0,0-1.683.51l-3.16,4.1-1.031-.8,3.212-4.169a2.159,2.159,0,0,1,2.507-.732" transform="translate(-28.92 -125.379)"/>
    <path id="パス_71" data-name="パス 71" d="M46.888,210.155a2.578,2.578,0,1,1-3.667.125,2.526,2.526,0,0,1,3.667-.125m-2.724,2.965a1.475,1.475,0,1,0,.007-2,1.393,1.393,0,0,0-.007,2" transform="translate(-24.916 -122.738)"/>
    <path id="パス_72" data-name="パス 72" d="M36.016,201.445c1.906-.68,2.982-.577,3.89-.127l-.076,1.123a3.4,3.4,0,0,0-2.886-.065l-2.2,4.3-.835-.956,1.016-1.945c.148-.272.341-.64.552-.954l-.014-.016c-.337.137-.744.293-1.026.4l-2.079.745-.786-.9Z" transform="translate(-18.501 -117.777)"/>
    <path id="パス_73" data-name="パス 73" d="M17.7,183.411a3.207,3.207,0,0,1,3.055,1.4,3.249,3.249,0,0,1,.3,2.635,2.514,2.514,0,0,0,.207,2.073,2.452,2.452,0,0,0,2.333,1.012l.057.787a3.207,3.207,0,0,1-3.055-1.4,3.252,3.252,0,0,1-.3-2.635,2.533,2.533,0,0,0-.207-2.073,2.452,2.452,0,0,0-2.333-1.011Z" transform="translate(-10.374 -107.49)"/>
    <path id="パス_74" data-name="パス 74" d="M12.215,158.225l-1.366,1.145.763,2.3,1.78.1L13.8,163l-7.476-.488-.241-.725,5.7-4.853ZM8.74,161.08c-.171.136-.405.316-.627.469l.007.02a7.444,7.444,0,0,1,.783,0l1.579.077-.522-1.572Z" transform="translate(-3.566 -91.978)"/>
    <path id="パス_75" data-name="パス 75" d="M8.7,143.99l-2.433,2.5.115.6,2.811-.539.25,1.3L2.7,149.151l-.432-2.25a2.013,2.013,0,0,1,1.562-2.48,1.855,1.855,0,0,1,1.925.781l2.637-2.817ZM3.414,146.9l.142.74,1.775-.341-.142-.74a.911.911,0,1,0-1.775.341" transform="translate(-1.301 -83.448)"/>
    <path id="パス_76" data-name="パス 76" d="M6.844,129.294l-1.616.753.144,2.417,1.693.557.077,1.3-7.1-2.4L0,131.155l6.763-3.215Zm-4.095,1.86c-.2.087-.473.2-.726.291v.022a7.453,7.453,0,0,1,.756.2l1.505.482-.1-1.654Z" transform="translate(0 -74.983)"/>
    <rect id="長方形_16" data-name="長方形 16" width="1.356" height="6.867" transform="matrix(0.038, -0.999, 0.999, 0.038, 0.014, 51.97)"/>
    <path id="パス_77" data-name="パス 77" d="M9.093,96.027l-2.81-.345c-.417-.056-.932-.121-1.4-.209l0,.021c.415.276.9.666,1.269.964l2.469,2-.11.516-3.074.842c-.456.123-1.034.253-1.539.355l0,.021c.471.111.978.263,1.351.375l2.707.83-.257,1.21L1.1,100.6l.211-.989,3.485-.964c.515-.143,1.214-.325,1.741-.422l0-.021c-.433-.29-.981-.715-1.422-1.073l-2.8-2.269.2-.947,6.845.83Z" transform="translate(-0.644 -55.04)"/>
    <path id="パス_78" data-name="パス 78" d="M15.554,82.187l-1.782.009-.881,2.255L14.2,85.665l-.474,1.213L8.282,81.726l.278-.712,7.487-.09Zm-4.5-.024c-.218,0-.514-.016-.781-.04l-.008.02a7.431,7.431,0,0,1,.6.5l1.166,1.068.6-1.544Z" transform="translate(-4.854 -47.428)"/>
    <path id="パス_79" data-name="パス 79" d="M20.429,74.694l-1.168.371a2,2,0,0,0-1.2-2.474l-4.775-2.434.611-1.2,4.87,2.484a2.866,2.866,0,0,1,1.664,3.252" transform="translate(-7.785 -40.415)"/>
    <path id="パス_80" data-name="パス 80" d="M24.271,59.365a2.616,2.616,0,0,1-3.741,1.026l-3.712-2.4.737-1.138,3.613,2.339a1.55,1.55,0,0,0,1.693-2.6l-3.622-2.345.719-1.111,3.712,2.4a2.606,2.606,0,0,1,.6,3.824" transform="translate(-9.857 -31.142)"/>
    <path id="パス_81" data-name="パス 81" d="M36.416,47.8l-5.033-4.67.922-.994,4.2,3.9,1.911-2.059.828.769Z" transform="translate(-18.393 -24.695)"/>
    <rect id="長方形_17" data-name="長方形 17" width="1.356" height="6.867" transform="translate(16.716 14.584) rotate(-42.621)"/>
    <path id="パス_82" data-name="パス 82" d="M52.145,28.9l-.678.514-6.276-3.953,1.115-.845,2.839,1.8c.417.265.9.6,1.361.94l.017-.013c-.205-.52-.4-1.077-.546-1.558l-.969-3.221,1.029-.78Z" transform="translate(-26.485 -12.772)"/>
    <path id="パス_83" data-name="パス 83" d="M63.247,23.244l-3.482-5.92,3.3-1.943.573.974L61.5,17.617l.873,1.484,1.782-1.048.578.983L62.95,20.085l.884,1.5,2.44-1.435.573.974Z" transform="translate(-35.027 -9.015)"/>
    <path id="パス_84" data-name="パス 84" d="M79.443,8.267l2.08,5.346-1.264.492-2.08-5.346-1.946.757-.41-1.053,5.155-2.006.41,1.053Z" transform="translate(-44.438 -3.784)"/>
    <path id="パス_85" data-name="パス 85" d="M96.251,10.139A3.579,3.579,0,1,1,98.987,5.8a3.576,3.576,0,0,1-2.736,4.338M94.868,4.351a2.3,2.3,0,0,0-1.674,2.856,2.294,2.294,0,1,0,4.458-1.065,2.315,2.315,0,0,0-2.784-1.791" transform="translate(-53.769 -1.802)"/>
    <path id="パス_86" data-name="パス 86" d="M115.1,7.209a2.616,2.616,0,0,1-3.087-2.351l-.343-4.41,1.352-.105.334,4.292a1.551,1.551,0,0,0,3.092-.229L116.117.1l1.32-.1.343,4.41a2.607,2.607,0,0,1-2.676,2.8" transform="translate(-65.45)"/>
    <path id="パス_87" data-name="パス 87" d="M133.273,7.114,131.43,4.148l-.613-.033-.154,2.858L129.341,6.9l.371-6.854L132,.171a2.013,2.013,0,0,1,2.029,2.114,1.854,1.854,0,0,1-1.222,1.679l2.1,3.239Zm-1.549-5.827-.752-.041-.1,1.8.752.041a.911.911,0,1,0,.1-1.805" transform="translate(-75.804 -0.028)"/>
  </g>
</svg>
